<?xml version="1.0" encoding="utf-8"?>
<!-- Generator: Adobe Illustrator 16.0.0, SVG Export Plug-In . SVG Version: 6.00 Build 0)  -->
<!DOCTYPE svg PUBLIC "-//W3C//DTD SVG 1.1//EN" "http://www.w3.org/Graphics/SVG/1.1/DTD/svg11.dtd">
<svg version="1.1" id="Calque_1" focusable="false" xmlns="http://www.w3.org/2000/svg" xmlns:xlink="http://www.w3.org/1999/xlink"
	 x="0px" y="0px" width="25px" height="25px" viewBox="0 0 612 792" enable-background="new 0 0 612 792" xml:space="preserve">
<path d="M136.99,658.286H10.109V249.694H136.99V658.286z M73.481,193.958C32.909,193.958,0,160.353,0,119.78
	c0.006-40.583,32.909-73.476,73.492-73.47c40.574,0.005,73.464,32.896,73.47,73.47C146.962,160.353,114.04,193.958,73.481,193.958z
	 M611.863,658.286H485.256v-198.9c0-47.403-0.956-108.193-65.968-108.193c-65.968,0-76.076,51.5-76.076,104.778v202.315H216.468
	V249.694h121.689v55.736h1.776c16.938-32.103,58.317-65.981,120.05-65.981C588.395,239.448,612,324.008,612,433.84v224.446H611.863z
	"/>
</svg>
