<?xml version="1.0" encoding="utf-8"?>
<!-- Generator: Adobe Illustrator 16.0.0, SVG Export Plug-In . SVG Version: 6.00 Build 0)  -->
<!DOCTYPE svg PUBLIC "-//W3C//DTD SVG 1.1//EN" "http://www.w3.org/Graphics/SVG/1.1/DTD/svg11.dtd">
<svg version="1.1" id="Calque_1" focusable="false" xmlns="http://www.w3.org/2000/svg" xmlns:xlink="http://www.w3.org/1999/xlink"
	 x="0px" y="0px" width="25px" height="25px" viewBox="0 0 612 792" enable-background="new 0 0 612 792" xml:space="preserve">
<path d="M390.403,311.6c71.416,71.491,70.437,186.108,0.431,256.502c-0.132,0.144-0.287,0.299-0.431,0.442l-80.325,80.324
	c-70.846,70.847-186.109,70.837-256.944,0c-70.846-70.834-70.846-186.109,0-256.944l44.354-44.354
	c11.762-11.762,32.018-3.944,32.625,12.678c0.774,21.183,4.573,42.465,11.583,63.018c2.374,6.959,0.678,14.657-4.522,19.856
	l-15.643,15.643c-33.5,33.5-34.55,88.047-1.38,121.875c33.497,34.16,88.556,34.363,122.31,0.609l80.325-80.313
	c33.697-33.697,33.557-88.162,0-121.718c-4.424-4.416-8.88-7.846-12.36-10.243c-4.993-3.429-8.072-9.016-8.304-15.068
	c-0.474-12.631,4.002-25.646,13.982-35.627l25.166-25.167c6.6-6.599,16.952-7.41,24.604-2.069
	C374.637,297.164,382.845,304.042,390.403,311.6L390.403,311.6z M558.865,143.13c-70.836-70.836-186.099-70.846-256.945,0
	l-80.325,80.325c-0.143,0.143-0.299,0.299-0.43,0.442c-70.005,70.395-70.986,185.012,0.43,256.502
	c7.558,7.558,15.766,14.437,24.529,20.555c7.652,5.341,18.006,4.529,24.604-2.068l25.167-25.168
	c9.981-9.98,14.456-22.996,13.983-35.627c-0.232-6.053-3.312-11.64-8.304-15.068c-3.481-2.396-7.938-5.827-12.361-10.243
	c-33.556-33.556-33.697-88.021,0-121.718l80.325-80.313c33.754-33.754,88.812-33.551,122.311,0.61
	c33.17,33.827,32.12,88.374-1.381,121.874l-15.644,15.643c-5.199,5.199-6.896,12.897-4.521,19.856
	c7.01,20.552,10.809,41.835,11.583,63.018c0.608,16.622,20.862,24.439,32.624,12.678l44.354-44.353
	C629.711,329.241,629.711,213.965,558.865,143.13L558.865,143.13z"/>
</svg>
