<?xml version="1.0" encoding="utf-8"?>
<!-- Generator: Adobe Illustrator 16.0.0, SVG Export Plug-In . SVG Version: 6.00 Build 0)  -->
<!DOCTYPE svg PUBLIC "-//W3C//DTD SVG 1.1//EN" "http://www.w3.org/Graphics/SVG/1.1/DTD/svg11.dtd">
<svg version="1.1" id="Calque_1" focusable="false" xmlns="http://www.w3.org/2000/svg" xmlns:xlink="http://www.w3.org/1999/xlink"
	 x="0px" y="0px" width="25px" height="25px" viewBox="0 0 612 792" enable-background="new 0 0 612 792" xml:space="preserve">
<path d="M306,99.563C142.172,99.563,9.563,232.146,9.563,396c0,163.828,132.583,296.438,296.438,296.438
	c57.559,0,113.964-16.901,161.854-48.079c14.351-9.342,17.481-29.031,6.637-42.28l-12.165-14.861
	c-9.169-11.201-25.315-13.946-37.5-6.131c-35.25,22.608-76.615,34.852-118.826,34.852c-121.274,0-219.938-98.663-219.938-219.938
	c0-121.274,98.664-219.938,219.938-219.938c119.697,0,219.938,68.873,219.938,191.25c0,46.361-25.213,95.316-69.531,100.039
	c-20.737-0.542-20.213-15.368-16.108-35.888l28.01-144.765c3.426-17.701-10.135-34.137-28.164-34.137h-53.766
	c-8.219,0-15.129,6.169-16.056,14.335l-0.012,0.11c-17.567-21.397-48.349-26.028-71.685-26.028
	c-89.146,0-164.751,74.389-164.751,181.042c0,78.058,43.97,126.548,114.75,126.548c32.254,0,68.574-18.69,89.638-45.819
	c11.382,40.765,48.545,40.764,84.521,40.764c130.179,0,179.654-85.599,179.654-176.201C602.438,204.335,470.98,99.563,306,99.563z
	 M280.085,463.451c-26.594,0-43.115-18.674-43.115-48.734c0-53.78,36.791-86.933,70.081-86.933
	c26.646,0,42.555,18.218,42.555,48.733C349.606,430.378,309.115,463.451,280.085,463.451L280.085,463.451z"/>
</svg>
